<?xml version="1.0" encoding="utf-8"?>
<!-- Generator: Adobe Illustrator 23.0.0, SVG Export Plug-In . SVG Version: 6.00 Build 0)  -->
<svg version="1.0" id="图层_1" xmlns="http://www.w3.org/2000/svg" xmlns:xlink="http://www.w3.org/1999/xlink" x="0px" y="0px"
	 viewBox="0 0 400 400" style="enable-background:new 0 0 400 400;" xml:space="preserve">
<style type="text/css">
	.st0{fill:#2A5616;}
	.st1{fill:#1D3A0A;}
	.st2{fill:#1F420C;}
	.st3{fill:#FFFFFF;}
	.st4{fill:#F73131;}
	.st5{fill:#282424;}
	.st6{fill:none;stroke:#155E18;stroke-width:5;stroke-linecap:round;stroke-miterlimit:10;}
	.st7{fill:#F42B1C;}
	.st8{fill:none;stroke:#A07040;stroke-miterlimit:10;}
	.st9{fill:#7F5526;}
	.st10{fill:#F9C032;}
	.st11{fill:#FFC74A;}
	.st12{fill:#E8AA3D;}
	.st13{fill:none;stroke:#AFAFAF;stroke-linecap:round;stroke-miterlimit:10;}
	.st14{fill:none;stroke:#AFAFAF;stroke-linecap:round;stroke-miterlimit:10;stroke-dasharray:3.9376,3.9376;}
</style>
<g>
	<g>
		<g>
			<g>
				<ellipse class="st0" cx="248.82" cy="171.7" rx="103.31" ry="100.35"/>
				<polygon class="st1" points="182.13,101.27 176.86,124.55 181.79,137.36 176.86,162.97 181.79,188.59 191.64,210.26 
					187.7,225.04 187.7,240.81 197.39,254.53 202.48,237.85 197.55,228.98 202.48,212.23 191.64,192.53 197.55,185.63 
					197.55,165.93 191.64,162.97 191.64,150.17 197.55,137.36 191.64,123.56 197.55,109.77 				"/>
				<polygon class="st2" points="177.21,100.29 171.94,123.56 176.86,136.37 171.94,161.99 176.86,187.6 186.71,209.28 
					182.77,224.06 182.77,239.82 192.46,253.54 197.55,236.86 192.63,228 197.55,211.25 186.71,191.54 192.63,184.65 192.63,164.94 
					186.71,161.99 186.71,149.18 192.63,136.37 186.71,122.58 192.63,108.79 				"/>
				<polygon class="st1" points="225.47,74.89 216.27,100.9 225.14,112.73 225.14,127.5 230.06,141.3 223.17,161 223.17,182.68 
					230.06,196.47 230.06,212.23 234.99,229.97 230.06,243.76 234.99,254.6 234.99,268.39 245.94,271.83 249.77,262.48 
					240.9,252.63 240.9,237.85 240.9,225.04 245.83,212.23 237.95,200.41 237.95,188.59 233.02,173.81 237.95,165.93 237.95,149.18 
					240.9,135.39 233.02,127.5 233.02,112.73 233.02,100.9 233.02,92.04 233.02,79.23 				"/>
				<polygon class="st2" points="221.53,74.89 212.33,100.9 221.2,112.73 221.2,127.5 226.12,141.3 219.23,161 219.23,182.68 
					226.12,196.47 226.12,212.23 231.05,229.97 226.12,243.76 231.05,254.6 231.05,268.39 242,271.83 245.83,262.48 236.96,252.63 
					236.96,237.85 236.96,225.04 241.89,212.23 234.01,200.41 234.01,188.59 229.08,173.81 234.01,165.93 234.01,149.18 
					236.96,135.39 229.08,127.5 229.08,112.73 229.08,100.9 229.08,92.04 229.08,79.23 				"/>
				<polygon class="st1" points="268.6,75.29 272.43,93.59 268.49,103.25 270.46,113.87 268.49,129.33 272.43,144.78 272.43,153.47 
					272.43,167 268.49,174.72 270.46,193.07 277.35,203.7 277.35,222.05 273.41,233.64 277.35,251.99 277.35,258.75 277.35,268.45 
					286.22,253.92 286.22,237.5 286.22,224.95 286.22,210.46 286.22,193.07 286.22,187.28 277.35,178.59 286.22,171.82 
					281.3,149.61 286.22,139.95 286.22,123.53 277.35,115.8 286.22,103.25 277.35,92.62 281.04,77.75 				"/>
				<polygon class="st2" points="263.67,76.25 267.5,94.56 263.56,104.21 265.53,114.84 263.56,130.29 267.5,145.75 267.5,154.44 
					267.5,167.96 263.56,175.69 265.53,194.04 272.43,204.66 272.43,223.02 268.49,234.61 272.43,252.96 272.43,259.72 
					272.43,269.42 281.3,254.89 281.3,238.47 281.3,225.91 281.3,211.43 281.3,194.04 281.3,188.24 272.43,179.55 281.3,172.79 
					276.37,150.58 281.3,140.92 281.3,124.5 272.43,116.77 281.3,104.21 272.43,93.59 276.11,78.71 				"/>
				<path class="st2" d="M317.58,95.82c0,0-8.7,6.07-6.73,15.92c1.97,9.85-2.96,18.72,2.96,21.67c5.91,2.96,10.84,21.67,3.94,26.6
					c-6.9,4.93,1.97,7.88,2.96,16.75c0.99,8.87-4.93,14.78-4.93,14.78v12.81l4.93,6.9v9.85l-4.93,2.96l-4.93,9.85l4.93,5.91
					l5.33,4.57l8.69-11.36l-0.23-23.75l3.94-17.73l-4.93-14.78l-0.99-10.84l5.91-9.85v-8.87l-11.82-9.85v-8.87v-5.91v-9.85v-4.93
					C321.69,107.8,324.31,100.6,317.58,95.82z"/>
			</g>
			<path class="st0" d="M252.64,192.58c-2.48,50.18-43.95,90.1-94.74,90.1s-92.26-39.92-94.74-90.1h-6.35
				c2.49,53.68,46.8,96.45,101.09,96.45s98.61-42.76,101.09-96.45H252.64z"/>
			<path class="st0" d="M62.25,192.58c2.59,50.86,44.25,91.29,95.26,91.29s92.67-40.43,95.26-91.29H62.25z"/>
			<path class="st3" d="M65.64,192.58c2.5,48.6,42.81,87.23,92.16,87.23s89.65-38.64,92.16-87.23H65.64z"/>
			<path class="st4" d="M70.86,192.58c2.37,46.16,40.55,82.86,87.3,82.86s84.93-36.7,87.3-82.86H70.86z"/>
			<path class="st5" d="M125.27,212.1c-2.57,0.06-6.01,6.65-4.96,9c1.05,2.34,9.03,2.05,10.27-0.2
				C131.81,218.65,127.83,212.03,125.27,212.1z"/>
			<path class="st5" d="M108.14,236.29c-2.67,0.07-6.25,6.91-5.15,9.34c1.09,2.43,9.38,2.13,10.67-0.21S110.81,236.22,108.14,236.29
				z"/>
			<path class="st5" d="M207.93,235.26c-1.98,0.05-4.63,5.12-3.82,6.92c0.81,1.8,6.95,1.58,7.91-0.15
				C212.97,240.3,209.91,235.21,207.93,235.26z"/>
			<path class="st5" d="M141.79,235.44c-2.63,0.07-6.17,6.83-5.09,9.23s9.27,2.1,10.54-0.21
				C148.51,242.16,144.43,235.37,141.79,235.44z"/>
			<path class="st5" d="M175.04,234.79c-2.56,0.06-5.99,6.63-4.94,8.96c1.05,2.33,8.99,2.04,10.23-0.2
				C181.57,241.31,177.6,234.73,175.04,234.79z"/>
			<path class="st5" d="M157.53,211.45c-2.49,0.06-5.83,6.45-4.81,8.72s8.76,1.99,9.96-0.19
				C163.88,217.8,160.02,211.39,157.53,211.45z"/>
			<path class="st5" d="M190.29,210.84c-2.63,0.07-6.16,6.81-5.08,9.21c1.08,2.4,9.25,2.1,10.52-0.2S192.92,210.78,190.29,210.84z"
				/>
			<path class="st6" d="M333.71,224.69c0,0,29.29-0.11,23.64,14.58c-5.65,14.7-23.74-12.44,5.65-14.7"/>
		</g>
		<g>
			<path class="st7" d="M210.37,283.39l33.72-47.51l50.9,35.33C294.99,271.2,250.22,307.91,210.37,283.39z"/>
			<path class="st5" d="M241.83,253.1c-2.2,0.06-5.15,5.7-4.25,7.7c0.9,2.01,7.73,1.75,8.79-0.17
				C247.44,258.7,244.03,253.04,241.83,253.1z"/>
			<path class="st5" d="M258.93,259.32c-2.2,0.06-5.15,5.7-4.25,7.7s7.73,1.75,8.79-0.17C264.54,264.92,261.13,259.26,258.93,259.32
				z"/>
			<path class="st3" d="M284.09,265.07c-7.93,11.66-21.46,19.15-36.6,18.68c-11.28-0.36-21.39-5.07-28.79-12.47l-5.97,7.99
				c9.01,8.54,21.06,13.95,34.45,14.37c19.43,0.61,36.72-9.43,46.28-24.84L284.09,265.07z"/>
			<path class="st0" d="M286.06,265.85c-8.16,12.87-22.53,21.42-38.9,21.42c-12.2,0-23.28-4.75-31.52-12.49l-6.18,8.83
				c10.02,8.92,23.22,14.35,37.7,14.35c21.01,0,39.34-11.43,49.14-28.4L286.06,265.85z"/>
		</g>
	</g>
	<g>
		<g>
			<path class="st8" d="M126.57,101.18c0,0,7.8-5.52,6.19-7.73"/>
			<path class="st8" d="M126.69,102.07c0,0,5.13-6.23,3.29-7.78"/>
			<circle class="st9" cx="132.52" cy="93.12" r="0.55"/>
			<circle class="st9" cx="129.76" cy="93.99" r="0.59"/>
			
				<ellipse transform="matrix(0.9572 -0.2895 0.2895 0.9572 -24.5583 38.9246)" class="st9" cx="119.28" cy="102.47" rx="11.03" ry="4.25"/>
			<path class="st10" d="M108.75,105.01c0,0-11.74-1.73-10.67-7.97c1.07-6.24,2.14-12.49,9.74-11.82
				c7.6,0.66,14.41,13.4,10.34,14.63S108.75,105.01,108.75,105.01z"/>
			<path class="st11" d="M116.89,102.55c0,0-11.74-1.73-10.67-7.97s2.14-12.49,9.74-11.82c7.6,0.66,14.41,13.4,10.34,14.63
				S116.89,102.55,116.89,102.55z"/>
			<circle class="st12" cx="114.48" cy="87.64" r="1.42"/>
			<circle class="st12" cx="113.47" cy="91.65" r="0.71"/>
		</g>
		<g>
			<g>
				<path class="st13" d="M37,134.32c0,0,0.68-0.24,1.86-0.71"/>
				<path class="st14" d="M42.5,132.1c6.99-3.02,19.14-8.95,27.51-16.76c12.38-11.55-9.08-33.84-22.28-22.28s4.13,37.14,25.58,31.36
					c12.6-3.39,18.94-7.07,22.02-9.52"/>
				<path class="st13" d="M96.82,113.58c0.97-0.97,1.26-1.55,1.26-1.55"/>
			</g>
		</g>
	</g>
</g>
</svg>
